%TF.GenerationSoftware,KiCad,Pcbnew,8.0.4*%
%TF.CreationDate,2024-09-11T06:46:47-05:00*%
%TF.ProjectId,rc,72632e6b-6963-4616-945f-706362585858,rev?*%
%TF.SameCoordinates,Original*%
%TF.FileFunction,Copper,L2,Bot*%
%TF.FilePolarity,Positive*%
%FSLAX46Y46*%
G04 Gerber Fmt 4.6, Leading zero omitted, Abs format (unit mm)*
G04 Created by KiCad (PCBNEW 8.0.4) date 2024-09-11 06:46:47*
%MOMM*%
%LPD*%
G01*
G04 APERTURE LIST*
%TA.AperFunction,ComponentPad*%
%ADD10C,2.600000*%
%TD*%
%TA.AperFunction,ConnectorPad*%
%ADD11C,3.500000*%
%TD*%
%TA.AperFunction,ComponentPad*%
%ADD12R,1.700000X1.700000*%
%TD*%
%TA.AperFunction,ComponentPad*%
%ADD13O,1.700000X1.700000*%
%TD*%
%TA.AperFunction,ViaPad*%
%ADD14C,0.600000*%
%TD*%
%TA.AperFunction,ViaPad*%
%ADD15C,0.800000*%
%TD*%
%TA.AperFunction,Conductor*%
%ADD16C,0.200000*%
%TD*%
%TA.AperFunction,Conductor*%
%ADD17C,0.500000*%
%TD*%
G04 APERTURE END LIST*
D10*
%TO.P,TP4,1,1*%
%TO.N,Net-(IC1-OUT2)*%
X122189769Y-55323426D03*
D11*
X122189769Y-55323426D03*
%TD*%
%TO.P,TP5,1,1*%
%TO.N,Net-(IC1-OUT3)*%
X179720769Y-58849426D03*
D10*
X179720769Y-58849426D03*
%TD*%
%TO.P,TP1,1,1*%
%TO.N,/V_IN*%
X145430769Y-52753426D03*
D11*
X145430769Y-52753426D03*
%TD*%
D12*
%TO.P,J2,1,Pin_1*%
%TO.N,+3.3V*%
X135016769Y-86535426D03*
D13*
%TO.P,J2,2,Pin_2*%
%TO.N,/TXD*%
X132476769Y-86535426D03*
%TO.P,J2,3,Pin_3*%
%TO.N,/RXD*%
X129936769Y-86535426D03*
%TO.P,J2,4,Pin_4*%
%TO.N,/DTR*%
X127396769Y-86535426D03*
%TO.P,J2,5,Pin_5*%
%TO.N,/RTS*%
X124856769Y-86535426D03*
%TO.P,J2,6,Pin_6*%
%TO.N,GND*%
X122316769Y-86535426D03*
%TD*%
D10*
%TO.P,TP3,1,1*%
%TO.N,Net-(IC1-OUT1)*%
X122189769Y-60373426D03*
D11*
X122189769Y-60373426D03*
%TD*%
D10*
%TO.P,TP6,1,1*%
%TO.N,Net-(IC1-OUT4)*%
X179720769Y-53799426D03*
D11*
X179720769Y-53799426D03*
%TD*%
D10*
%TO.P,TP2,1,1*%
%TO.N,GND*%
X155336769Y-52753426D03*
D11*
X155336769Y-52753426D03*
%TD*%
D14*
%TO.N,GND*%
X136540769Y-80693426D03*
X149494769Y-80439426D03*
%TO.N,+3.3V*%
X131968769Y-72565426D03*
%TO.N,GND*%
X151018769Y-55801426D03*
%TO.N,Net-(Q2-C)*%
X127142769Y-80439426D03*
X149748769Y-77899426D03*
%TO.N,GND*%
X139334769Y-88313426D03*
%TO.N,/twi_sck*%
X146700769Y-83903426D03*
%TO.N,/twi_sda*%
X163972769Y-82725426D03*
X141112769Y-82125426D03*
%TO.N,/LED2*%
X130952769Y-82725426D03*
X141620769Y-83233426D03*
%TO.N,/LED1*%
X140858769Y-83741426D03*
X130444769Y-83741426D03*
%TO.N,Net-(Q2-B)*%
X128920769Y-83233426D03*
X124348769Y-83233426D03*
%TO.N,/CHIP_PU*%
X121554769Y-84503426D03*
X152288769Y-84503426D03*
%TO.N,+3.3V*%
X138064769Y-89583426D03*
X151018769Y-90091426D03*
%TO.N,/RXD*%
X146954769Y-91615426D03*
X130952769Y-91107426D03*
%TO.N,/TXD*%
X147462769Y-90599426D03*
X132984769Y-89075426D03*
%TO.N,/cam_rst*%
X144922769Y-88821426D03*
X159146769Y-89075426D03*
%TO.N,/csi_vsync*%
X145938769Y-88151426D03*
X158638769Y-88313426D03*
%TO.N,/pwdn*%
X137302769Y-86789426D03*
X157368769Y-87551426D03*
%TO.N,/csi_hsync*%
X143906769Y-74597426D03*
X157368769Y-74343426D03*
%TO.N,/csi_d7*%
X143652769Y-73581426D03*
X164734769Y-71549426D03*
%TO.N,/csi_mclk*%
X133746769Y-71803426D03*
X159654769Y-71295426D03*
%TO.N,/csi_d6*%
X134508769Y-70787426D03*
X161178769Y-70645426D03*
%TO.N,/csi_d5*%
X159204456Y-69609426D03*
X135524769Y-69771426D03*
%TO.N,/csi_d4*%
X158638769Y-69009426D03*
X147716769Y-69009426D03*
%TO.N,/csi_d0*%
X159400769Y-68177426D03*
X136286769Y-68501426D03*
%TO.N,/csi_d3*%
X137048769Y-67739426D03*
X160613082Y-67577426D03*
%TO.N,/csi_d1*%
X138064769Y-66977426D03*
X161178769Y-66977426D03*
%TO.N,/csi_d2*%
X139842769Y-65961426D03*
X161432769Y-65961426D03*
%TO.N,+3.3V*%
X150764769Y-73073426D03*
X161178769Y-72057426D03*
%TO.N,/csi_pclk*%
X171846769Y-68501426D03*
X164236853Y-69017938D03*
%TO.N,GND*%
X165750769Y-80947426D03*
X164226769Y-78661426D03*
%TO.N,/twi_sck*%
X167020769Y-75613426D03*
X166766769Y-85519426D03*
%TO.N,/pwdn*%
X168036769Y-73489426D03*
X164236853Y-73572914D03*
%TO.N,GND*%
X174089504Y-81412161D03*
X176164769Y-77137426D03*
%TO.N,+1V2*%
X173116769Y-72565426D03*
X166004769Y-72565426D03*
%TO.N,+2V8*%
X166004769Y-75359426D03*
X176164769Y-74089426D03*
%TO.N,GND*%
X175910769Y-69517426D03*
X176164769Y-65707426D03*
X146967794Y-55814451D03*
X136286769Y-55801426D03*
X135778769Y-52245426D03*
X127142769Y-51991426D03*
X127904769Y-58595426D03*
X133746769Y-58849426D03*
D15*
%TO.N,Net-(IC1-OUT1)*%
X141366769Y-60119426D03*
%TO.N,Net-(IC1-OUT2)*%
X142128769Y-57325426D03*
%TO.N,Net-(IC1-OUT4)*%
X147208769Y-57325426D03*
%TO.N,Net-(IC1-OUT3)*%
X145176769Y-58595426D03*
%TD*%
D16*
%TO.N,GND*%
X149240769Y-80693426D02*
X149494769Y-80439426D01*
X136540769Y-80693426D02*
X149240769Y-80693426D01*
%TO.N,+3.3V*%
X132384769Y-72981426D02*
X131968769Y-72565426D01*
X150672769Y-72981426D02*
X132384769Y-72981426D01*
X150764769Y-73073426D02*
X150672769Y-72981426D01*
%TO.N,GND*%
X151018769Y-55801426D02*
X146980819Y-55801426D01*
X146980819Y-55801426D02*
X146967794Y-55814451D01*
%TO.N,Net-(Q2-C)*%
X129682769Y-77899426D02*
X127142769Y-80439426D01*
X149748769Y-77899426D02*
X129682769Y-77899426D01*
%TO.N,GND*%
X124094769Y-88313426D02*
X122316769Y-86535426D01*
X139334769Y-88313426D02*
X124094769Y-88313426D01*
%TO.N,/twi_sck*%
X166350769Y-83903426D02*
X166766769Y-83487426D01*
X166766769Y-83487426D02*
X166766769Y-75867426D01*
X146700769Y-83903426D02*
X166350769Y-83903426D01*
X166766769Y-85519426D02*
X166766769Y-83487426D01*
%TO.N,/twi_sda*%
X141112769Y-82125426D02*
X163372769Y-82125426D01*
X163372769Y-82125426D02*
X163972769Y-82725426D01*
%TO.N,/LED2*%
X130952769Y-82725426D02*
X141112769Y-82725426D01*
X141112769Y-82725426D02*
X141620769Y-83233426D01*
%TO.N,/LED1*%
X130444769Y-83741426D02*
X140858769Y-83741426D01*
%TO.N,Net-(Q2-B)*%
X124348769Y-83233426D02*
X128920769Y-83233426D01*
%TO.N,/CHIP_PU*%
X121554769Y-84503426D02*
X152288769Y-84503426D01*
%TO.N,+3.3V*%
X149240769Y-89583426D02*
X138064769Y-89583426D01*
X149748769Y-90091426D02*
X149240769Y-89583426D01*
X151018769Y-90091426D02*
X149748769Y-90091426D01*
%TO.N,/RXD*%
X146446769Y-91107426D02*
X146954769Y-91615426D01*
X130952769Y-91107426D02*
X146446769Y-91107426D01*
%TO.N,/TXD*%
X134508769Y-90599426D02*
X147462769Y-90599426D01*
X132984769Y-89075426D02*
X134508769Y-90599426D01*
%TO.N,/cam_rst*%
X145176769Y-89075426D02*
X144922769Y-88821426D01*
X159146769Y-89075426D02*
X145176769Y-89075426D01*
%TO.N,/csi_vsync*%
X146100769Y-88313426D02*
X145938769Y-88151426D01*
X158638769Y-88313426D02*
X146100769Y-88313426D01*
%TO.N,/pwdn*%
X138064769Y-87551426D02*
X137302769Y-86789426D01*
X157368769Y-87551426D02*
X138064769Y-87551426D01*
%TO.N,/csi_hsync*%
X144160769Y-74343426D02*
X143906769Y-74597426D01*
X157368769Y-74343426D02*
X144160769Y-74343426D01*
%TO.N,/csi_d7*%
X143744769Y-73673426D02*
X143652769Y-73581426D01*
X162610769Y-73673426D02*
X143744769Y-73673426D01*
X164734769Y-71549426D02*
X162610769Y-73673426D01*
%TO.N,/csi_mclk*%
X159562769Y-71387426D02*
X134162769Y-71387426D01*
X159654769Y-71295426D02*
X159562769Y-71387426D01*
X134162769Y-71387426D02*
X133746769Y-71803426D01*
%TO.N,/csi_d6*%
X134650769Y-70645426D02*
X134508769Y-70787426D01*
X161178769Y-70645426D02*
X134650769Y-70645426D01*
%TO.N,/csi_d5*%
X135686769Y-69609426D02*
X135524769Y-69771426D01*
X159204456Y-69609426D02*
X135686769Y-69609426D01*
%TO.N,/csi_d4*%
X158638769Y-69009426D02*
X147716769Y-69009426D01*
%TO.N,/csi_d0*%
X159400769Y-68177426D02*
X159238769Y-68339426D01*
X159238769Y-68339426D02*
X136448769Y-68339426D01*
X136448769Y-68339426D02*
X136286769Y-68501426D01*
%TO.N,/csi_d3*%
X137210769Y-67577426D02*
X137048769Y-67739426D01*
X160613082Y-67577426D02*
X137210769Y-67577426D01*
%TO.N,/csi_d1*%
X161178769Y-66977426D02*
X138064769Y-66977426D01*
%TO.N,/csi_d2*%
X161432769Y-65961426D02*
X139842769Y-65961426D01*
%TO.N,+3.3V*%
X161178769Y-72057426D02*
X151780769Y-72057426D01*
X151780769Y-72057426D02*
X150764769Y-73073426D01*
%TO.N,/csi_pclk*%
X171330257Y-69017938D02*
X171846769Y-68501426D01*
X164236853Y-69017938D02*
X171330257Y-69017938D01*
%TO.N,GND*%
X164734769Y-78661426D02*
X165750769Y-79677426D01*
X165750769Y-79677426D02*
X165750769Y-80947426D01*
X164226769Y-78661426D02*
X164734769Y-78661426D01*
%TO.N,/twi_sck*%
X166766769Y-75867426D02*
X167020769Y-75613426D01*
%TO.N,/pwdn*%
X164320341Y-73489426D02*
X164236853Y-73572914D01*
X168036769Y-73489426D02*
X164320341Y-73489426D01*
%TO.N,GND*%
X176164769Y-77137426D02*
X176164769Y-79336896D01*
X176164769Y-79336896D02*
X174089504Y-81412161D01*
%TO.N,+1V2*%
X166004769Y-72565426D02*
X173116769Y-72565426D01*
%TO.N,+2V8*%
X167274769Y-74089426D02*
X166004769Y-75359426D01*
X176164769Y-74089426D02*
X167274769Y-74089426D01*
%TO.N,GND*%
X175910769Y-65961426D02*
X176164769Y-65707426D01*
X175910769Y-69517426D02*
X175910769Y-65961426D01*
X136286769Y-55801426D02*
X146954769Y-55801426D01*
X146954769Y-55801426D02*
X146967794Y-55814451D01*
X135524769Y-51991426D02*
X135778769Y-52245426D01*
X127142769Y-51991426D02*
X135524769Y-51991426D01*
X128158769Y-58849426D02*
X127904769Y-58595426D01*
X133746769Y-58849426D02*
X128158769Y-58849426D01*
D17*
%TO.N,Net-(IC1-OUT1)*%
X141366769Y-60119426D02*
X141112769Y-60373426D01*
X141112769Y-60373426D02*
X122189769Y-60373426D01*
%TO.N,Net-(IC1-OUT2)*%
X124191769Y-57325426D02*
X122189769Y-55323426D01*
X142128769Y-57325426D02*
X124191769Y-57325426D01*
%TO.N,Net-(IC1-OUT4)*%
X147462769Y-57071426D02*
X176448769Y-57071426D01*
X176448769Y-57071426D02*
X179720769Y-53799426D01*
X147208769Y-57325426D02*
X147462769Y-57071426D01*
%TO.N,Net-(IC1-OUT3)*%
X145176769Y-58595426D02*
X150256769Y-58595426D01*
X150510769Y-58849426D02*
X179720769Y-58849426D01*
X150256769Y-58595426D02*
X150510769Y-58849426D01*
%TD*%
M02*
