%TF.GenerationSoftware,KiCad,Pcbnew,8.0.5*%
%TF.CreationDate,2024-09-22T08:03:17-05:00*%
%TF.ProjectId,rc,72632e6b-6963-4616-945f-706362585858,rev?*%
%TF.SameCoordinates,Original*%
%TF.FileFunction,Soldermask,Top*%
%TF.FilePolarity,Negative*%
%FSLAX46Y46*%
G04 Gerber Fmt 4.6, Leading zero omitted, Abs format (unit mm)*
G04 Created by KiCad (PCBNEW 8.0.5) date 2024-09-22 08:03:17*
%MOMM*%
%LPD*%
G01*
G04 APERTURE LIST*
G04 Aperture macros list*
%AMRoundRect*
0 Rectangle with rounded corners*
0 $1 Rounding radius*
0 $2 $3 $4 $5 $6 $7 $8 $9 X,Y pos of 4 corners*
0 Add a 4 corners polygon primitive as box body*
4,1,4,$2,$3,$4,$5,$6,$7,$8,$9,$2,$3,0*
0 Add four circle primitives for the rounded corners*
1,1,$1+$1,$2,$3*
1,1,$1+$1,$4,$5*
1,1,$1+$1,$6,$7*
1,1,$1+$1,$8,$9*
0 Add four rect primitives between the rounded corners*
20,1,$1+$1,$2,$3,$4,$5,0*
20,1,$1+$1,$4,$5,$6,$7,0*
20,1,$1+$1,$6,$7,$8,$9,0*
20,1,$1+$1,$8,$9,$2,$3,0*%
%AMOutline5P*
0 Free polygon, 5 corners , with rotation*
0 The origin of the aperture is its center*
0 number of corners: always 5*
0 $1 to $10 corner X, Y*
0 $11 Rotation angle, in degrees counterclockwise*
0 create outline with 5 corners*
4,1,5,$1,$2,$3,$4,$5,$6,$7,$8,$9,$10,$1,$2,$11*%
%AMOutline6P*
0 Free polygon, 6 corners , with rotation*
0 The origin of the aperture is its center*
0 number of corners: always 6*
0 $1 to $12 corner X, Y*
0 $13 Rotation angle, in degrees counterclockwise*
0 create outline with 6 corners*
4,1,6,$1,$2,$3,$4,$5,$6,$7,$8,$9,$10,$11,$12,$1,$2,$13*%
%AMOutline7P*
0 Free polygon, 7 corners , with rotation*
0 The origin of the aperture is its center*
0 number of corners: always 7*
0 $1 to $14 corner X, Y*
0 $15 Rotation angle, in degrees counterclockwise*
0 create outline with 7 corners*
4,1,7,$1,$2,$3,$4,$5,$6,$7,$8,$9,$10,$11,$12,$13,$14,$1,$2,$15*%
%AMOutline8P*
0 Free polygon, 8 corners , with rotation*
0 The origin of the aperture is its center*
0 number of corners: always 8*
0 $1 to $16 corner X, Y*
0 $17 Rotation angle, in degrees counterclockwise*
0 create outline with 8 corners*
4,1,8,$1,$2,$3,$4,$5,$6,$7,$8,$9,$10,$11,$12,$13,$14,$15,$16,$1,$2,$17*%
G04 Aperture macros list end*
%ADD10R,3.911600X1.498600*%
%ADD11C,3.500000*%
%ADD12C,2.600000*%
%ADD13R,1.525000X0.650000*%
%ADD14RoundRect,0.225000X-0.225000X-0.250000X0.225000X-0.250000X0.225000X0.250000X-0.225000X0.250000X0*%
%ADD15R,0.400000X0.800000*%
%ADD16R,0.800000X0.400000*%
%ADD17Outline5P,-0.600000X0.204000X-0.204000X0.600000X0.600000X0.600000X0.600000X-0.600000X-0.600000X-0.600000X270.000000*%
%ADD18R,1.200000X1.200000*%
%ADD19R,0.800000X0.800000*%
%ADD20RoundRect,0.250000X0.450000X-0.262500X0.450000X0.262500X-0.450000X0.262500X-0.450000X-0.262500X0*%
%ADD21R,1.300000X0.300000*%
%ADD22R,2.200000X1.800000*%
%ADD23RoundRect,0.250000X-0.450000X0.262500X-0.450000X-0.262500X0.450000X-0.262500X0.450000X0.262500X0*%
%ADD24RoundRect,0.150000X-0.512500X-0.150000X0.512500X-0.150000X0.512500X0.150000X-0.512500X0.150000X0*%
%ADD25R,1.700000X1.700000*%
%ADD26O,1.700000X1.700000*%
%ADD27RoundRect,0.225000X0.250000X-0.225000X0.250000X0.225000X-0.250000X0.225000X-0.250000X-0.225000X0*%
%ADD28RoundRect,0.250000X0.262500X0.450000X-0.262500X0.450000X-0.262500X-0.450000X0.262500X-0.450000X0*%
%ADD29RoundRect,0.250000X0.250000X0.475000X-0.250000X0.475000X-0.250000X-0.475000X0.250000X-0.475000X0*%
%ADD30R,0.549999X0.800001*%
%ADD31RoundRect,0.250000X0.325000X0.650000X-0.325000X0.650000X-0.325000X-0.650000X0.325000X-0.650000X0*%
%ADD32RoundRect,0.218750X-0.218750X-0.256250X0.218750X-0.256250X0.218750X0.256250X-0.218750X0.256250X0*%
%ADD33RoundRect,0.225000X-0.250000X0.225000X-0.250000X-0.225000X0.250000X-0.225000X0.250000X0.225000X0*%
%ADD34RoundRect,0.225000X0.225000X0.250000X-0.225000X0.250000X-0.225000X-0.250000X0.225000X-0.250000X0*%
%ADD35R,1.300000X3.500000*%
%ADD36RoundRect,0.250000X-0.475000X0.250000X-0.475000X-0.250000X0.475000X-0.250000X0.475000X0.250000X0*%
%ADD37RoundRect,0.150000X-0.150000X0.587500X-0.150000X-0.587500X0.150000X-0.587500X0.150000X0.587500X0*%
%ADD38R,0.650000X1.525000*%
G04 APERTURE END LIST*
D10*
%TO.C,C15*%
X151206200Y-60706000D03*
X159512000Y-60706000D03*
%TD*%
D11*
%TO.C,TP8*%
X180086000Y-58898000D03*
D12*
X180086000Y-58898000D03*
%TD*%
D11*
%TO.C,TP7*%
X180086000Y-53848000D03*
D12*
X180086000Y-53848000D03*
%TD*%
D13*
%TO.C,IC2*%
X167296000Y-51118000D03*
X167296000Y-52118000D03*
X167296000Y-53118000D03*
X167296000Y-54118000D03*
X167296000Y-55118000D03*
X172720000Y-55118000D03*
X172720000Y-54118000D03*
X172720000Y-53118000D03*
X172720000Y-52118000D03*
X172720000Y-51118000D03*
%TD*%
D14*
%TO.C,C14*%
X169151000Y-57404000D03*
X170701000Y-57404000D03*
%TD*%
D12*
%TO.C,TP4*%
X122189769Y-55323426D03*
D11*
X122189769Y-55323426D03*
%TD*%
D12*
%TO.C,TP1*%
X145430769Y-52753426D03*
D11*
X145430769Y-52753426D03*
%TD*%
D15*
%TO.C,U1*%
X152522769Y-71789426D03*
X151672769Y-71789426D03*
X150822769Y-71789426D03*
X149972769Y-71789426D03*
X149122769Y-71789426D03*
X148272769Y-71789426D03*
X147422769Y-71789426D03*
X146572769Y-71789426D03*
X145722769Y-71789426D03*
X144872769Y-71789426D03*
X144022769Y-71789426D03*
X143172769Y-71789426D03*
X142322769Y-71789426D03*
X141472769Y-71789426D03*
X140622769Y-71789426D03*
D16*
X139572769Y-72839426D03*
X139572769Y-73689426D03*
X139572769Y-74539426D03*
X139572769Y-75389426D03*
X139572769Y-76239426D03*
X139572769Y-77089426D03*
X139572769Y-77939426D03*
X139572769Y-78789426D03*
X139572769Y-79639426D03*
X139572769Y-80489426D03*
X139572769Y-81339426D03*
X139572769Y-82189426D03*
X139572769Y-83039426D03*
X139572769Y-83889426D03*
X139572769Y-84739426D03*
D15*
X140622769Y-85789426D03*
X141472769Y-85789426D03*
X142322769Y-85789426D03*
X143172769Y-85789426D03*
X144022769Y-85789426D03*
X144872769Y-85789426D03*
X145722769Y-85789426D03*
X146572769Y-85789426D03*
X147422769Y-85789426D03*
X148272769Y-85789426D03*
X149122769Y-85789426D03*
X149972769Y-85789426D03*
X150822769Y-85789426D03*
X151672769Y-85789426D03*
X152522769Y-85789426D03*
D16*
X153572769Y-84739426D03*
X153572769Y-83889426D03*
X153572769Y-83039426D03*
X153572769Y-82189426D03*
X153572769Y-81339426D03*
X153572769Y-80489426D03*
X153572769Y-79639426D03*
X153572769Y-78789426D03*
X153572769Y-77939426D03*
X153572769Y-77089426D03*
X153572769Y-76239426D03*
X153572769Y-75389426D03*
X153572769Y-74539426D03*
X153572769Y-73689426D03*
X153572769Y-72839426D03*
D17*
X148222769Y-77139426D03*
D18*
X146572769Y-77139426D03*
X144922769Y-77139426D03*
X148222769Y-78789426D03*
X146572769Y-78789426D03*
X144922769Y-78789426D03*
X148222769Y-80439426D03*
X146572769Y-80439426D03*
X144922769Y-80439426D03*
D19*
X153572769Y-71789426D03*
X139572769Y-71789426D03*
X139572769Y-85789426D03*
X153572769Y-85789426D03*
%TD*%
D20*
%TO.C,R5*%
X152542769Y-89987926D03*
X152542769Y-88162926D03*
%TD*%
D21*
%TO.C,J1*%
X163204769Y-77045426D03*
X163204769Y-76545426D03*
X163204769Y-76045426D03*
X163204769Y-75545426D03*
X163204769Y-75045426D03*
X163204769Y-74545426D03*
X163204769Y-74045426D03*
X163204769Y-73545426D03*
X163204769Y-73045426D03*
X163204769Y-72545426D03*
X163204769Y-72045426D03*
X163204769Y-71545426D03*
X163204769Y-71045426D03*
X163204769Y-70545426D03*
X163204769Y-70045426D03*
X163204769Y-69545426D03*
X163204769Y-69045426D03*
X163204769Y-68545426D03*
X163204769Y-68045426D03*
X163204769Y-67545426D03*
X163204769Y-67045426D03*
X163204769Y-66545426D03*
X163204769Y-66045426D03*
X163204769Y-65545426D03*
D22*
X166454769Y-78945426D03*
X166454769Y-63645426D03*
%TD*%
D23*
%TO.C,R7*%
X162194769Y-88162926D03*
X162194769Y-89987926D03*
%TD*%
D14*
%TO.C,C9*%
X173482269Y-75625426D03*
X175032269Y-75625426D03*
%TD*%
D24*
%TO.C,U4*%
X177699769Y-75425426D03*
X177699769Y-77325426D03*
X179974769Y-76375426D03*
%TD*%
D25*
%TO.C,J2*%
X135016769Y-86535426D03*
D26*
X132476769Y-86535426D03*
X129936769Y-86535426D03*
X127396769Y-86535426D03*
X124856769Y-86535426D03*
X122316769Y-86535426D03*
%TD*%
D12*
%TO.C,TP3*%
X122189769Y-60373426D03*
D11*
X122189769Y-60373426D03*
%TD*%
D20*
%TO.C,R6*%
X168798769Y-84550426D03*
X168798769Y-82725426D03*
%TD*%
D27*
%TO.C,C3*%
X129682769Y-59624426D03*
X129682769Y-58074426D03*
%TD*%
D28*
%TO.C,R2*%
X136691269Y-62913426D03*
X134866269Y-62913426D03*
%TD*%
D23*
%TO.C,R8*%
X165750769Y-88162926D03*
X165750769Y-89987926D03*
%TD*%
D29*
%TO.C,C11*%
X120830269Y-82471426D03*
X118930269Y-82471426D03*
%TD*%
D30*
%TO.C,U2*%
X133050768Y-60124427D03*
X134000769Y-60124427D03*
X134950767Y-60124427D03*
X134950767Y-57574427D03*
X134000769Y-57574427D03*
X133050768Y-57574427D03*
%TD*%
D31*
%TO.C,C1*%
X140047769Y-52499426D03*
X137097769Y-52499426D03*
%TD*%
D32*
%TO.C,D3*%
X124577269Y-71041426D03*
X126152269Y-71041426D03*
%TD*%
D27*
%TO.C,C5*%
X151526769Y-69276426D03*
X151526769Y-67726426D03*
%TD*%
D33*
%TO.C,C6*%
X147462769Y-66215426D03*
X147462769Y-67765426D03*
%TD*%
D14*
%TO.C,C7*%
X173228269Y-63800426D03*
X174778269Y-63800426D03*
%TD*%
D34*
%TO.C,C2*%
X139347769Y-56055426D03*
X137797769Y-56055426D03*
%TD*%
D28*
%TO.C,R9*%
X130087269Y-68247426D03*
X128262269Y-68247426D03*
%TD*%
D20*
%TO.C,R3*%
X124198269Y-76779926D03*
X124198269Y-74954926D03*
%TD*%
D35*
%TO.C,L1*%
X133238769Y-54023426D03*
X131038769Y-54023426D03*
%TD*%
D28*
%TO.C,R10*%
X130087269Y-71041426D03*
X128262269Y-71041426D03*
%TD*%
D36*
%TO.C,C4*%
X127904769Y-53581426D03*
X127904769Y-55481426D03*
%TD*%
D24*
%TO.C,U3*%
X177445769Y-63995426D03*
X177445769Y-65895426D03*
X179720769Y-64945426D03*
%TD*%
D27*
%TO.C,C12*%
X173116769Y-71054426D03*
X173116769Y-69504426D03*
%TD*%
D32*
%TO.C,D2*%
X124577269Y-68247426D03*
X126152269Y-68247426D03*
%TD*%
D28*
%TO.C,R1*%
X132881269Y-62913426D03*
X131056269Y-62913426D03*
%TD*%
D37*
%TO.C,Q2*%
X128196269Y-77137426D03*
X126296269Y-77137426D03*
X127246269Y-79012426D03*
%TD*%
D14*
%TO.C,C8*%
X173228269Y-66310426D03*
X174778269Y-66310426D03*
%TD*%
D27*
%TO.C,C13*%
X172100769Y-84516426D03*
X172100769Y-82966426D03*
%TD*%
D23*
%TO.C,R4*%
X124198269Y-80288926D03*
X124198269Y-82113926D03*
%TD*%
D14*
%TO.C,C10*%
X173482269Y-78135426D03*
X175032269Y-78135426D03*
%TD*%
D12*
%TO.C,TP2*%
X155336769Y-52753426D03*
D11*
X155336769Y-52753426D03*
%TD*%
D37*
%TO.C,Q1*%
X121912269Y-77137426D03*
X120012269Y-77137426D03*
X120962269Y-79012426D03*
%TD*%
D38*
%TO.C,IC1*%
X141398769Y-67403426D03*
X142398769Y-67403426D03*
X143398769Y-67403426D03*
X144398769Y-67403426D03*
X145398769Y-67403426D03*
X145398769Y-61979426D03*
X144398769Y-61979426D03*
X143398769Y-61979426D03*
X142398769Y-61979426D03*
X141398769Y-61979426D03*
%TD*%
M02*
