%TF.GenerationSoftware,KiCad,Pcbnew,8.0.4*%
%TF.CreationDate,2024-09-11T06:46:47-05:00*%
%TF.ProjectId,rc,72632e6b-6963-4616-945f-706362585858,rev?*%
%TF.SameCoordinates,Original*%
%TF.FileFunction,Copper,L1,Top*%
%TF.FilePolarity,Positive*%
%FSLAX46Y46*%
G04 Gerber Fmt 4.6, Leading zero omitted, Abs format (unit mm)*
G04 Created by KiCad (PCBNEW 8.0.4) date 2024-09-11 06:46:47*
%MOMM*%
%LPD*%
G01*
G04 APERTURE LIST*
G04 Aperture macros list*
%AMRoundRect*
0 Rectangle with rounded corners*
0 $1 Rounding radius*
0 $2 $3 $4 $5 $6 $7 $8 $9 X,Y pos of 4 corners*
0 Add a 4 corners polygon primitive as box body*
4,1,4,$2,$3,$4,$5,$6,$7,$8,$9,$2,$3,0*
0 Add four circle primitives for the rounded corners*
1,1,$1+$1,$2,$3*
1,1,$1+$1,$4,$5*
1,1,$1+$1,$6,$7*
1,1,$1+$1,$8,$9*
0 Add four rect primitives between the rounded corners*
20,1,$1+$1,$2,$3,$4,$5,0*
20,1,$1+$1,$4,$5,$6,$7,0*
20,1,$1+$1,$6,$7,$8,$9,0*
20,1,$1+$1,$8,$9,$2,$3,0*%
%AMOutline5P*
0 Free polygon, 5 corners , with rotation*
0 The origin of the aperture is its center*
0 number of corners: always 5*
0 $1 to $10 corner X, Y*
0 $11 Rotation angle, in degrees counterclockwise*
0 create outline with 5 corners*
4,1,5,$1,$2,$3,$4,$5,$6,$7,$8,$9,$10,$1,$2,$11*%
%AMOutline6P*
0 Free polygon, 6 corners , with rotation*
0 The origin of the aperture is its center*
0 number of corners: always 6*
0 $1 to $12 corner X, Y*
0 $13 Rotation angle, in degrees counterclockwise*
0 create outline with 6 corners*
4,1,6,$1,$2,$3,$4,$5,$6,$7,$8,$9,$10,$11,$12,$1,$2,$13*%
%AMOutline7P*
0 Free polygon, 7 corners , with rotation*
0 The origin of the aperture is its center*
0 number of corners: always 7*
0 $1 to $14 corner X, Y*
0 $15 Rotation angle, in degrees counterclockwise*
0 create outline with 7 corners*
4,1,7,$1,$2,$3,$4,$5,$6,$7,$8,$9,$10,$11,$12,$13,$14,$1,$2,$15*%
%AMOutline8P*
0 Free polygon, 8 corners , with rotation*
0 The origin of the aperture is its center*
0 number of corners: always 8*
0 $1 to $16 corner X, Y*
0 $17 Rotation angle, in degrees counterclockwise*
0 create outline with 8 corners*
4,1,8,$1,$2,$3,$4,$5,$6,$7,$8,$9,$10,$11,$12,$13,$14,$15,$16,$1,$2,$17*%
G04 Aperture macros list end*
%TA.AperFunction,ComponentPad*%
%ADD10C,2.600000*%
%TD*%
%TA.AperFunction,ConnectorPad*%
%ADD11C,3.500000*%
%TD*%
%TA.AperFunction,SMDPad,CuDef*%
%ADD12R,0.400000X0.800000*%
%TD*%
%TA.AperFunction,SMDPad,CuDef*%
%ADD13R,0.800000X0.400000*%
%TD*%
%TA.AperFunction,SMDPad,CuDef*%
%ADD14Outline5P,-0.600000X0.204000X-0.204000X0.600000X0.600000X0.600000X0.600000X-0.600000X-0.600000X-0.600000X270.000000*%
%TD*%
%TA.AperFunction,SMDPad,CuDef*%
%ADD15R,1.200000X1.200000*%
%TD*%
%TA.AperFunction,SMDPad,CuDef*%
%ADD16R,0.800000X0.800000*%
%TD*%
%TA.AperFunction,SMDPad,CuDef*%
%ADD17RoundRect,0.250000X0.450000X-0.262500X0.450000X0.262500X-0.450000X0.262500X-0.450000X-0.262500X0*%
%TD*%
%TA.AperFunction,SMDPad,CuDef*%
%ADD18R,1.300000X0.300000*%
%TD*%
%TA.AperFunction,SMDPad,CuDef*%
%ADD19R,2.200000X1.800000*%
%TD*%
%TA.AperFunction,SMDPad,CuDef*%
%ADD20RoundRect,0.250000X-0.450000X0.262500X-0.450000X-0.262500X0.450000X-0.262500X0.450000X0.262500X0*%
%TD*%
%TA.AperFunction,SMDPad,CuDef*%
%ADD21RoundRect,0.225000X-0.225000X-0.250000X0.225000X-0.250000X0.225000X0.250000X-0.225000X0.250000X0*%
%TD*%
%TA.AperFunction,SMDPad,CuDef*%
%ADD22RoundRect,0.150000X-0.512500X-0.150000X0.512500X-0.150000X0.512500X0.150000X-0.512500X0.150000X0*%
%TD*%
%TA.AperFunction,ComponentPad*%
%ADD23R,1.700000X1.700000*%
%TD*%
%TA.AperFunction,ComponentPad*%
%ADD24O,1.700000X1.700000*%
%TD*%
%TA.AperFunction,SMDPad,CuDef*%
%ADD25RoundRect,0.225000X0.250000X-0.225000X0.250000X0.225000X-0.250000X0.225000X-0.250000X-0.225000X0*%
%TD*%
%TA.AperFunction,SMDPad,CuDef*%
%ADD26RoundRect,0.250000X0.262500X0.450000X-0.262500X0.450000X-0.262500X-0.450000X0.262500X-0.450000X0*%
%TD*%
%TA.AperFunction,SMDPad,CuDef*%
%ADD27RoundRect,0.250000X0.250000X0.475000X-0.250000X0.475000X-0.250000X-0.475000X0.250000X-0.475000X0*%
%TD*%
%TA.AperFunction,SMDPad,CuDef*%
%ADD28R,0.549999X0.800001*%
%TD*%
%TA.AperFunction,SMDPad,CuDef*%
%ADD29RoundRect,0.250000X0.325000X0.650000X-0.325000X0.650000X-0.325000X-0.650000X0.325000X-0.650000X0*%
%TD*%
%TA.AperFunction,SMDPad,CuDef*%
%ADD30RoundRect,0.218750X-0.218750X-0.256250X0.218750X-0.256250X0.218750X0.256250X-0.218750X0.256250X0*%
%TD*%
%TA.AperFunction,SMDPad,CuDef*%
%ADD31RoundRect,0.225000X-0.250000X0.225000X-0.250000X-0.225000X0.250000X-0.225000X0.250000X0.225000X0*%
%TD*%
%TA.AperFunction,SMDPad,CuDef*%
%ADD32RoundRect,0.225000X0.225000X0.250000X-0.225000X0.250000X-0.225000X-0.250000X0.225000X-0.250000X0*%
%TD*%
%TA.AperFunction,SMDPad,CuDef*%
%ADD33R,1.300000X3.500000*%
%TD*%
%TA.AperFunction,SMDPad,CuDef*%
%ADD34RoundRect,0.250000X-0.475000X0.250000X-0.475000X-0.250000X0.475000X-0.250000X0.475000X0.250000X0*%
%TD*%
%TA.AperFunction,SMDPad,CuDef*%
%ADD35RoundRect,0.150000X-0.150000X0.587500X-0.150000X-0.587500X0.150000X-0.587500X0.150000X0.587500X0*%
%TD*%
%TA.AperFunction,SMDPad,CuDef*%
%ADD36R,0.650000X1.525000*%
%TD*%
%TA.AperFunction,ViaPad*%
%ADD37C,0.600000*%
%TD*%
%TA.AperFunction,ViaPad*%
%ADD38C,0.800000*%
%TD*%
%TA.AperFunction,Conductor*%
%ADD39C,0.200000*%
%TD*%
%TA.AperFunction,Conductor*%
%ADD40C,0.500000*%
%TD*%
G04 APERTURE END LIST*
D10*
%TO.P,TP4,1,1*%
%TO.N,Net-(IC1-OUT2)*%
X122189769Y-55323426D03*
D11*
X122189769Y-55323426D03*
%TD*%
%TO.P,TP5,1,1*%
%TO.N,Net-(IC1-OUT3)*%
X179720769Y-58849426D03*
D10*
X179720769Y-58849426D03*
%TD*%
%TO.P,TP1,1,1*%
%TO.N,/V_IN*%
X145430769Y-52753426D03*
D11*
X145430769Y-52753426D03*
%TD*%
D12*
%TO.P,U1,1,GND*%
%TO.N,GND*%
X152522769Y-71789426D03*
%TO.P,U1,2,GND*%
X151672769Y-71789426D03*
%TO.P,U1,3,3V3*%
%TO.N,+3.3V*%
X150822769Y-71789426D03*
%TO.P,U1,4,IO0*%
%TO.N,Net-(Q2-C)*%
X149972769Y-71789426D03*
%TO.P,U1,5,IO1*%
%TO.N,unconnected-(U1-IO1-Pad5)*%
X149122769Y-71789426D03*
%TO.P,U1,6,IO2*%
%TO.N,unconnected-(U1-IO2-Pad6)*%
X148272769Y-71789426D03*
%TO.P,U1,7,IO3*%
%TO.N,/csi_d4*%
X147422769Y-71789426D03*
%TO.P,U1,8,IO4*%
%TO.N,unconnected-(U1-IO4-Pad8)*%
X146572769Y-71789426D03*
%TO.P,U1,9,IO5*%
%TO.N,unconnected-(U1-IO5-Pad9)*%
X145722769Y-71789426D03*
%TO.P,U1,10,IO6*%
%TO.N,/steer_b*%
X144872769Y-71789426D03*
%TO.P,U1,11,IO7*%
%TO.N,/steer_a*%
X144022769Y-71789426D03*
%TO.P,U1,12,IO8*%
%TO.N,unconnected-(U1-IO8-Pad12)*%
X143172769Y-71789426D03*
%TO.P,U1,13,IO9*%
%TO.N,/motor_b*%
X142322769Y-71789426D03*
%TO.P,U1,14,IO10*%
%TO.N,/motor_a*%
X141472769Y-71789426D03*
%TO.P,U1,15,IO11*%
%TO.N,/csi_d2*%
X140622769Y-71789426D03*
D13*
%TO.P,U1,16,IO12*%
%TO.N,/csi_d1*%
X139572769Y-72839426D03*
%TO.P,U1,17,IO13*%
%TO.N,/csi_d3*%
X139572769Y-73689426D03*
%TO.P,U1,18,IO14*%
%TO.N,/csi_d0*%
X139572769Y-74539426D03*
%TO.P,U1,19,IO15*%
%TO.N,unconnected-(U1-IO15-Pad19)*%
X139572769Y-75389426D03*
%TO.P,U1,20,IO16*%
%TO.N,unconnected-(U1-IO16-Pad20)*%
X139572769Y-76239426D03*
%TO.P,U1,21,IO17*%
%TO.N,/csi_d5*%
X139572769Y-77089426D03*
%TO.P,U1,22,IO18*%
%TO.N,/csi_d6*%
X139572769Y-77939426D03*
%TO.P,U1,23,IO19*%
%TO.N,unconnected-(U1-IO19-Pad23)*%
X139572769Y-78789426D03*
%TO.P,U1,24,IO20*%
%TO.N,unconnected-(U1-IO20-Pad24)*%
X139572769Y-79639426D03*
%TO.P,U1,25,IO21*%
%TO.N,/csi_mclk*%
X139572769Y-80489426D03*
%TO.P,U1,26,IO26*%
%TO.N,unconnected-(U1-IO26-Pad26)*%
X139572769Y-81339426D03*
%TO.P,U1,27,IO47*%
%TO.N,/twi_sda*%
X139572769Y-82189426D03*
%TO.P,U1,28,IO33*%
%TO.N,unconnected-(U1-IO33-Pad28)*%
X139572769Y-83039426D03*
%TO.P,U1,29,IO34*%
%TO.N,/pwdn*%
X139572769Y-83889426D03*
%TO.P,U1,30,IO48*%
%TO.N,unconnected-(U1-IO48-Pad30)*%
X139572769Y-84739426D03*
D12*
%TO.P,U1,31,IO35*%
%TO.N,/LED1*%
X140622769Y-85789426D03*
%TO.P,U1,32,IO36*%
%TO.N,/LED2*%
X141472769Y-85789426D03*
%TO.P,U1,33,IO37*%
%TO.N,unconnected-(U1-IO37-Pad33)*%
X142322769Y-85789426D03*
%TO.P,U1,34,IO38*%
%TO.N,/csi_d7*%
X143172769Y-85789426D03*
%TO.P,U1,35,IO39*%
%TO.N,/csi_hsync*%
X144022769Y-85789426D03*
%TO.P,U1,36,IO40*%
%TO.N,/cam_rst*%
X144872769Y-85789426D03*
%TO.P,U1,37,IO41*%
%TO.N,/csi_vsync*%
X145722769Y-85789426D03*
%TO.P,U1,38,IO42*%
%TO.N,/twi_sck*%
X146572769Y-85789426D03*
%TO.P,U1,39,TXD0*%
%TO.N,/TXD*%
X147422769Y-85789426D03*
%TO.P,U1,40,RXD0*%
%TO.N,/RXD*%
X148272769Y-85789426D03*
%TO.P,U1,41,IO45*%
%TO.N,unconnected-(U1-IO45-Pad41)*%
X149122769Y-85789426D03*
%TO.P,U1,42,GND*%
%TO.N,GND*%
X149972769Y-85789426D03*
%TO.P,U1,43,GND*%
X150822769Y-85789426D03*
%TO.P,U1,44,IO46*%
%TO.N,unconnected-(U1-IO46-Pad44)*%
X151672769Y-85789426D03*
%TO.P,U1,45,EN*%
%TO.N,/CHIP_PU*%
X152522769Y-85789426D03*
D13*
%TO.P,U1,46,GND*%
%TO.N,GND*%
X153572769Y-84739426D03*
%TO.P,U1,47,GND*%
X153572769Y-83889426D03*
%TO.P,U1,48,GND*%
X153572769Y-83039426D03*
%TO.P,U1,49,GND*%
X153572769Y-82189426D03*
%TO.P,U1,50,GND*%
X153572769Y-81339426D03*
%TO.P,U1,51,GND*%
X153572769Y-80489426D03*
%TO.P,U1,52,GND*%
X153572769Y-79639426D03*
%TO.P,U1,53,GND*%
X153572769Y-78789426D03*
%TO.P,U1,54,GND*%
X153572769Y-77939426D03*
%TO.P,U1,55,GND*%
X153572769Y-77089426D03*
%TO.P,U1,56,GND*%
X153572769Y-76239426D03*
%TO.P,U1,57,GND*%
X153572769Y-75389426D03*
%TO.P,U1,58,GND*%
X153572769Y-74539426D03*
%TO.P,U1,59,GND*%
X153572769Y-73689426D03*
%TO.P,U1,60,GND*%
X153572769Y-72839426D03*
D14*
%TO.P,U1,61,GND*%
X148222769Y-77139426D03*
D15*
X146572769Y-77139426D03*
X144922769Y-77139426D03*
X148222769Y-78789426D03*
X146572769Y-78789426D03*
X144922769Y-78789426D03*
X148222769Y-80439426D03*
X146572769Y-80439426D03*
X144922769Y-80439426D03*
D16*
%TO.P,U1,62,GND*%
X153572769Y-71789426D03*
%TO.P,U1,63,GND*%
X139572769Y-71789426D03*
%TO.P,U1,64,GND*%
X139572769Y-85789426D03*
%TO.P,U1,65,GND*%
X153572769Y-85789426D03*
%TD*%
D17*
%TO.P,R5,1*%
%TO.N,+3.3V*%
X152542769Y-89987926D03*
%TO.P,R5,2*%
%TO.N,/CHIP_PU*%
X152542769Y-88162926D03*
%TD*%
D18*
%TO.P,J1,1,Pin_1*%
%TO.N,unconnected-(J1-Pin_1-Pad1)*%
X163204769Y-77045426D03*
%TO.P,J1,2,Pin_2*%
%TO.N,GND*%
X163204769Y-76545426D03*
%TO.P,J1,3,Pin_3*%
%TO.N,/twi_sda*%
X163204769Y-76045426D03*
%TO.P,J1,4,Pin_4*%
%TO.N,+2V8*%
X163204769Y-75545426D03*
%TO.P,J1,5,Pin_5*%
%TO.N,/twi_sck*%
X163204769Y-75045426D03*
%TO.P,J1,6,Pin_6*%
%TO.N,/cam_rst*%
X163204769Y-74545426D03*
%TO.P,J1,7,Pin_7*%
%TO.N,/csi_vsync*%
X163204769Y-74045426D03*
%TO.P,J1,8,Pin_8*%
%TO.N,/pwdn*%
X163204769Y-73545426D03*
%TO.P,J1,9,Pin_9*%
%TO.N,/csi_hsync*%
X163204769Y-73045426D03*
%TO.P,J1,10,Pin_10*%
%TO.N,+1V2*%
X163204769Y-72545426D03*
%TO.P,J1,11,Pin_11*%
%TO.N,+3.3V*%
X163204769Y-72045426D03*
%TO.P,J1,12,Pin_12*%
%TO.N,/csi_d7*%
X163204769Y-71545426D03*
%TO.P,J1,13,Pin_13*%
%TO.N,/csi_mclk*%
X163204769Y-71045426D03*
%TO.P,J1,14,Pin_14*%
%TO.N,/csi_d6*%
X163204769Y-70545426D03*
%TO.P,J1,15,Pin_15*%
%TO.N,GND*%
X163204769Y-70045426D03*
%TO.P,J1,16,Pin_16*%
%TO.N,/csi_d5*%
X163204769Y-69545426D03*
%TO.P,J1,17,Pin_17*%
%TO.N,/csi_pclk*%
X163204769Y-69045426D03*
%TO.P,J1,18,Pin_18*%
%TO.N,/csi_d4*%
X163204769Y-68545426D03*
%TO.P,J1,19,Pin_19*%
%TO.N,/csi_d0*%
X163204769Y-68045426D03*
%TO.P,J1,20,Pin_20*%
%TO.N,/csi_d3*%
X163204769Y-67545426D03*
%TO.P,J1,21,Pin_21*%
%TO.N,/csi_d1*%
X163204769Y-67045426D03*
%TO.P,J1,22,Pin_22*%
%TO.N,/csi_d2*%
X163204769Y-66545426D03*
%TO.P,J1,23,Pin_23*%
%TO.N,unconnected-(J1-Pin_23-Pad23)*%
X163204769Y-66045426D03*
%TO.P,J1,24,Pin_24*%
%TO.N,unconnected-(J1-Pin_24-Pad24)*%
X163204769Y-65545426D03*
D19*
%TO.P,J1,MP,MountPin*%
%TO.N,GND*%
X166454769Y-78945426D03*
X166454769Y-63645426D03*
%TD*%
D20*
%TO.P,R7,1*%
%TO.N,/twi_sda*%
X162194769Y-88162926D03*
%TO.P,R7,2*%
%TO.N,+3.3V*%
X162194769Y-89987926D03*
%TD*%
D21*
%TO.P,C9,1*%
%TO.N,+1V2*%
X173482269Y-75625426D03*
%TO.P,C9,2*%
%TO.N,GND*%
X175032269Y-75625426D03*
%TD*%
D22*
%TO.P,U4,1,GND*%
%TO.N,GND*%
X177699769Y-75425426D03*
%TO.P,U4,2,VO*%
%TO.N,+1V2*%
X177699769Y-77325426D03*
%TO.P,U4,3,VI*%
%TO.N,+3.3V*%
X179974769Y-76375426D03*
%TD*%
D23*
%TO.P,J2,1,Pin_1*%
%TO.N,+3.3V*%
X135016769Y-86535426D03*
D24*
%TO.P,J2,2,Pin_2*%
%TO.N,/TXD*%
X132476769Y-86535426D03*
%TO.P,J2,3,Pin_3*%
%TO.N,/RXD*%
X129936769Y-86535426D03*
%TO.P,J2,4,Pin_4*%
%TO.N,/DTR*%
X127396769Y-86535426D03*
%TO.P,J2,5,Pin_5*%
%TO.N,/RTS*%
X124856769Y-86535426D03*
%TO.P,J2,6,Pin_6*%
%TO.N,GND*%
X122316769Y-86535426D03*
%TD*%
D10*
%TO.P,TP3,1,1*%
%TO.N,Net-(IC1-OUT1)*%
X122189769Y-60373426D03*
D11*
X122189769Y-60373426D03*
%TD*%
D17*
%TO.P,R6,1*%
%TO.N,GND*%
X168798769Y-84550426D03*
%TO.P,R6,2*%
%TO.N,/pwdn*%
X168798769Y-82725426D03*
%TD*%
D25*
%TO.P,C3,1*%
%TO.N,Net-(U2-CB)*%
X129682769Y-59624426D03*
%TO.P,C3,2*%
%TO.N,Net-(U2-SW)*%
X129682769Y-58074426D03*
%TD*%
D26*
%TO.P,R2,1*%
%TO.N,GND*%
X136691269Y-62913426D03*
%TO.P,R2,2*%
%TO.N,Net-(U2-FB)*%
X134866269Y-62913426D03*
%TD*%
D20*
%TO.P,R8,1*%
%TO.N,/twi_sck*%
X165750769Y-88162926D03*
%TO.P,R8,2*%
%TO.N,+3.3V*%
X165750769Y-89987926D03*
%TD*%
D27*
%TO.P,C11,1*%
%TO.N,/CHIP_PU*%
X120830269Y-82471426D03*
%TO.P,C11,2*%
%TO.N,GND*%
X118930269Y-82471426D03*
%TD*%
D28*
%TO.P,U2,1,CB*%
%TO.N,Net-(U2-CB)*%
X133050768Y-60124427D03*
%TO.P,U2,2,GND*%
%TO.N,GND*%
X134000769Y-60124427D03*
%TO.P,U2,3,FB*%
%TO.N,Net-(U2-FB)*%
X134950767Y-60124427D03*
%TO.P,U2,4,EN*%
%TO.N,/V_IN*%
X134950767Y-57574427D03*
%TO.P,U2,5,VIN*%
X134000769Y-57574427D03*
%TO.P,U2,6,SW*%
%TO.N,Net-(U2-SW)*%
X133050768Y-57574427D03*
%TD*%
D29*
%TO.P,C1,1*%
%TO.N,/V_IN*%
X140047769Y-52499426D03*
%TO.P,C1,2*%
%TO.N,GND*%
X137097769Y-52499426D03*
%TD*%
D30*
%TO.P,D3,1,K*%
%TO.N,GND*%
X124577269Y-71041426D03*
%TO.P,D3,2,A*%
%TO.N,Net-(D3-A)*%
X126152269Y-71041426D03*
%TD*%
D25*
%TO.P,C5,1*%
%TO.N,+3.3V*%
X151526769Y-69276426D03*
%TO.P,C5,2*%
%TO.N,GND*%
X151526769Y-67726426D03*
%TD*%
D31*
%TO.P,C6,1*%
%TO.N,/V_IN*%
X147462769Y-66215426D03*
%TO.P,C6,2*%
%TO.N,GND*%
X147462769Y-67765426D03*
%TD*%
D10*
%TO.P,TP6,1,1*%
%TO.N,Net-(IC1-OUT4)*%
X179720769Y-53799426D03*
D11*
X179720769Y-53799426D03*
%TD*%
D21*
%TO.P,C7,1*%
%TO.N,+2V8*%
X173228269Y-63800426D03*
%TO.P,C7,2*%
%TO.N,GND*%
X174778269Y-63800426D03*
%TD*%
D32*
%TO.P,C2,1*%
%TO.N,/V_IN*%
X139347769Y-56055426D03*
%TO.P,C2,2*%
%TO.N,GND*%
X137797769Y-56055426D03*
%TD*%
D26*
%TO.P,R9,1*%
%TO.N,/LED2*%
X130087269Y-68247426D03*
%TO.P,R9,2*%
%TO.N,Net-(D2-A)*%
X128262269Y-68247426D03*
%TD*%
D17*
%TO.P,R3,1*%
%TO.N,/DTR*%
X124198269Y-76779926D03*
%TO.P,R3,2*%
%TO.N,Net-(Q1-B)*%
X124198269Y-74954926D03*
%TD*%
D33*
%TO.P,L1,1,1*%
%TO.N,Net-(U2-SW)*%
X133238769Y-54023426D03*
%TO.P,L1,2,2*%
%TO.N,+3.3V*%
X131038769Y-54023426D03*
%TD*%
D26*
%TO.P,R10,1*%
%TO.N,/LED1*%
X130087269Y-71041426D03*
%TO.P,R10,2*%
%TO.N,Net-(D3-A)*%
X128262269Y-71041426D03*
%TD*%
D34*
%TO.P,C4,1*%
%TO.N,+3.3V*%
X127904769Y-53581426D03*
%TO.P,C4,2*%
%TO.N,GND*%
X127904769Y-55481426D03*
%TD*%
D22*
%TO.P,U3,3,VI*%
%TO.N,+3.3V*%
X179720769Y-64945426D03*
%TO.P,U3,2,VO*%
%TO.N,+2V8*%
X177445769Y-65895426D03*
%TO.P,U3,1,GND*%
%TO.N,GND*%
X177445769Y-63995426D03*
%TD*%
D25*
%TO.P,C12,1*%
%TO.N,GND*%
X173116769Y-71054426D03*
%TO.P,C12,2*%
%TO.N,/csi_pclk*%
X173116769Y-69504426D03*
%TD*%
D30*
%TO.P,D2,1,K*%
%TO.N,GND*%
X124577269Y-68247426D03*
%TO.P,D2,2,A*%
%TO.N,Net-(D2-A)*%
X126152269Y-68247426D03*
%TD*%
D26*
%TO.P,R1,1*%
%TO.N,Net-(U2-FB)*%
X132881269Y-62913426D03*
%TO.P,R1,2*%
%TO.N,+3.3V*%
X131056269Y-62913426D03*
%TD*%
D35*
%TO.P,Q2,1,B*%
%TO.N,Net-(Q2-B)*%
X128196269Y-77137426D03*
%TO.P,Q2,2,E*%
%TO.N,/DTR*%
X126296269Y-77137426D03*
%TO.P,Q2,3,C*%
%TO.N,Net-(Q2-C)*%
X127246269Y-79012426D03*
%TD*%
D21*
%TO.P,C8,1*%
%TO.N,+2V8*%
X173228269Y-66310426D03*
%TO.P,C8,2*%
%TO.N,GND*%
X174778269Y-66310426D03*
%TD*%
D25*
%TO.P,C13,1*%
%TO.N,+3.3V*%
X172100769Y-84516426D03*
%TO.P,C13,2*%
%TO.N,GND*%
X172100769Y-82966426D03*
%TD*%
D20*
%TO.P,R4,1*%
%TO.N,/RTS*%
X124198269Y-80288926D03*
%TO.P,R4,2*%
%TO.N,Net-(Q2-B)*%
X124198269Y-82113926D03*
%TD*%
D36*
%TO.P,IC1,1,IN1*%
%TO.N,/motor_a*%
X141398769Y-67403426D03*
%TO.P,IC1,2,IN2*%
%TO.N,/motor_b*%
X142398769Y-67403426D03*
%TO.P,IC1,3,VBB*%
%TO.N,/V_IN*%
X143398769Y-67403426D03*
%TO.P,IC1,4,IN3*%
%TO.N,/steer_a*%
X144398769Y-67403426D03*
%TO.P,IC1,5,IN4*%
%TO.N,/steer_b*%
X145398769Y-67403426D03*
%TO.P,IC1,6,OUT4*%
%TO.N,Net-(IC1-OUT4)*%
X145398769Y-61979426D03*
%TO.P,IC1,7,OUT3*%
%TO.N,Net-(IC1-OUT3)*%
X144398769Y-61979426D03*
%TO.P,IC1,8,GND*%
%TO.N,GND*%
X143398769Y-61979426D03*
%TO.P,IC1,9,OUT2*%
%TO.N,Net-(IC1-OUT2)*%
X142398769Y-61979426D03*
%TO.P,IC1,10,OUT1*%
%TO.N,Net-(IC1-OUT1)*%
X141398769Y-61979426D03*
%TD*%
D21*
%TO.P,C10,1*%
%TO.N,+1V2*%
X173482269Y-78135426D03*
%TO.P,C10,2*%
%TO.N,GND*%
X175032269Y-78135426D03*
%TD*%
D10*
%TO.P,TP2,1,1*%
%TO.N,GND*%
X155336769Y-52753426D03*
D11*
X155336769Y-52753426D03*
%TD*%
D35*
%TO.P,Q1,1,B*%
%TO.N,Net-(Q1-B)*%
X121912269Y-77137426D03*
%TO.P,Q1,2,E*%
%TO.N,/RTS*%
X120012269Y-77137426D03*
%TO.P,Q1,3,C*%
%TO.N,/CHIP_PU*%
X120962269Y-79012426D03*
%TD*%
D37*
%TO.N,GND*%
X136540769Y-80693426D03*
X149494769Y-80439426D03*
%TO.N,+3.3V*%
X131968769Y-72565426D03*
%TO.N,GND*%
X151018769Y-55801426D03*
%TO.N,Net-(Q2-C)*%
X127142769Y-80439426D03*
X149748769Y-77899426D03*
%TO.N,GND*%
X139334769Y-88313426D03*
%TO.N,/twi_sck*%
X146700769Y-83903426D03*
%TO.N,/twi_sda*%
X163972769Y-82725426D03*
X141112769Y-82125426D03*
%TO.N,/LED2*%
X130952769Y-82725426D03*
X141620769Y-83233426D03*
%TO.N,/LED1*%
X140858769Y-83741426D03*
X130444769Y-83741426D03*
%TO.N,Net-(Q2-B)*%
X128920769Y-83233426D03*
X124348769Y-83233426D03*
%TO.N,/CHIP_PU*%
X121554769Y-84503426D03*
X152288769Y-84503426D03*
%TO.N,+3.3V*%
X138064769Y-89583426D03*
X151018769Y-90091426D03*
%TO.N,/RXD*%
X146954769Y-91615426D03*
X130952769Y-91107426D03*
%TO.N,/TXD*%
X147462769Y-90599426D03*
X132984769Y-89075426D03*
%TO.N,/cam_rst*%
X144922769Y-88821426D03*
X159146769Y-89075426D03*
%TO.N,/csi_vsync*%
X145938769Y-88151426D03*
X158638769Y-88313426D03*
%TO.N,/pwdn*%
X137302769Y-86789426D03*
X157368769Y-87551426D03*
%TO.N,/csi_hsync*%
X143906769Y-74597426D03*
X157368769Y-74343426D03*
%TO.N,/csi_d7*%
X143652769Y-73581426D03*
X164734769Y-71549426D03*
%TO.N,/csi_mclk*%
X133746769Y-71803426D03*
X159654769Y-71295426D03*
%TO.N,/csi_d6*%
X134508769Y-70787426D03*
X161178769Y-70645426D03*
%TO.N,/csi_d5*%
X159204456Y-69609426D03*
X135524769Y-69771426D03*
%TO.N,/csi_d4*%
X158638769Y-69009426D03*
X147716769Y-69009426D03*
%TO.N,/csi_d0*%
X159400769Y-68177426D03*
X136286769Y-68501426D03*
%TO.N,/csi_d3*%
X137048769Y-67739426D03*
X160613082Y-67577426D03*
%TO.N,/csi_d1*%
X138064769Y-66977426D03*
X161178769Y-66977426D03*
%TO.N,/csi_d2*%
X139842769Y-65961426D03*
X161432769Y-65961426D03*
%TO.N,+3.3V*%
X150764769Y-73073426D03*
X161178769Y-72057426D03*
%TO.N,/csi_pclk*%
X171846769Y-68501426D03*
X164236853Y-69017938D03*
%TO.N,GND*%
X165750769Y-80947426D03*
X164226769Y-78661426D03*
%TO.N,/twi_sck*%
X167020769Y-75613426D03*
X166766769Y-85519426D03*
%TO.N,/pwdn*%
X168036769Y-73489426D03*
X164236853Y-73572914D03*
%TO.N,GND*%
X174089504Y-81412161D03*
X176164769Y-77137426D03*
%TO.N,+1V2*%
X173116769Y-72565426D03*
X166004769Y-72565426D03*
%TO.N,+2V8*%
X166004769Y-75359426D03*
X176164769Y-74089426D03*
%TO.N,GND*%
X175910769Y-69517426D03*
X176164769Y-65707426D03*
X146967794Y-55814451D03*
X136286769Y-55801426D03*
X135778769Y-52245426D03*
X127142769Y-51991426D03*
X127904769Y-58595426D03*
X133746769Y-58849426D03*
D38*
%TO.N,Net-(IC1-OUT1)*%
X141366769Y-60119426D03*
%TO.N,Net-(IC1-OUT2)*%
X142128769Y-57325426D03*
%TO.N,Net-(IC1-OUT4)*%
X147208769Y-57325426D03*
%TO.N,Net-(IC1-OUT3)*%
X145176769Y-58595426D03*
%TD*%
D39*
%TO.N,GND*%
X149494769Y-80439426D02*
X148222769Y-80439426D01*
X137978240Y-88313426D02*
X136540769Y-86875955D01*
X136540769Y-86875955D02*
X136540769Y-80693426D01*
X139334769Y-88313426D02*
X137978240Y-88313426D01*
X139242769Y-65464926D02*
X136691269Y-62913426D01*
X139242769Y-71459426D02*
X139242769Y-65464926D01*
X139572769Y-71789426D02*
X139242769Y-71459426D01*
%TO.N,+3.3V*%
X131968769Y-83487426D02*
X131968769Y-72565426D01*
X135016769Y-86535426D02*
X131968769Y-83487426D01*
X131968769Y-72565426D02*
X131968769Y-63825926D01*
X131968769Y-63825926D02*
X131056269Y-62913426D01*
%TO.N,GND*%
X151526769Y-56309426D02*
X151018769Y-55801426D01*
X151526769Y-67726426D02*
X151526769Y-56309426D01*
%TO.N,Net-(Q2-C)*%
X127142769Y-79115926D02*
X127246269Y-79012426D01*
X127142769Y-80439426D02*
X127142769Y-79115926D01*
X149972769Y-77675426D02*
X149748769Y-77899426D01*
X149972769Y-71789426D02*
X149972769Y-77675426D01*
%TO.N,GND*%
X139572769Y-88075426D02*
X139334769Y-88313426D01*
X139572769Y-85789426D02*
X139572769Y-88075426D01*
X149972769Y-85789426D02*
X150822769Y-85789426D01*
X152054240Y-83889426D02*
X153572769Y-83889426D01*
X150822769Y-85120897D02*
X152054240Y-83889426D01*
X150822769Y-85789426D02*
X150822769Y-85120897D01*
%TO.N,/twi_sck*%
X146572769Y-84031426D02*
X146700769Y-83903426D01*
X146572769Y-85789426D02*
X146572769Y-84031426D01*
%TO.N,/twi_sda*%
X163972769Y-82725426D02*
X164988769Y-81709426D01*
X141048769Y-82189426D02*
X141112769Y-82125426D01*
X162194769Y-84503426D02*
X163972769Y-82725426D01*
X139572769Y-82189426D02*
X141048769Y-82189426D01*
%TO.N,/LED2*%
X141472769Y-84143426D02*
X141472769Y-85789426D01*
X141620769Y-83995426D02*
X141472769Y-84143426D01*
X141620769Y-83233426D02*
X141620769Y-83995426D01*
X130952769Y-69112926D02*
X130952769Y-82725426D01*
X130087269Y-68247426D02*
X130952769Y-69112926D01*
%TO.N,/LED1*%
X140858769Y-83995426D02*
X140622769Y-84231426D01*
X140858769Y-83741426D02*
X140858769Y-83995426D01*
X140622769Y-84231426D02*
X140622769Y-85789426D01*
X130087269Y-83383926D02*
X130444769Y-83741426D01*
X130087269Y-71041426D02*
X130087269Y-83383926D01*
%TO.N,Net-(D2-A)*%
X126152269Y-68247426D02*
X128262269Y-68247426D01*
%TO.N,Net-(D3-A)*%
X126152269Y-71041426D02*
X128262269Y-71041426D01*
%TO.N,GND*%
X124577269Y-68247426D02*
X124577269Y-71041426D01*
X118930269Y-76688426D02*
X124577269Y-71041426D01*
X118930269Y-82471426D02*
X118930269Y-76688426D01*
%TO.N,/RTS*%
X120465321Y-77137426D02*
X123616821Y-80288926D01*
X123616821Y-80288926D02*
X124198269Y-80288926D01*
X120012269Y-77137426D02*
X120465321Y-77137426D01*
%TO.N,Net-(Q1-B)*%
X124094769Y-74954926D02*
X124198269Y-74954926D01*
X121912269Y-77137426D02*
X124094769Y-74954926D01*
%TO.N,Net-(Q2-B)*%
X128196269Y-82000926D02*
X128196269Y-77137426D01*
X128920769Y-82725426D02*
X128196269Y-82000926D01*
X128920769Y-83233426D02*
X128920769Y-82725426D01*
X124198269Y-83082926D02*
X124348769Y-83233426D01*
X124198269Y-82113926D02*
X124198269Y-83082926D01*
%TO.N,/DTR*%
X126296269Y-85434926D02*
X127396769Y-86535426D01*
X126296269Y-77137426D02*
X126296269Y-85434926D01*
X125938769Y-76779926D02*
X126296269Y-77137426D01*
X124198269Y-76779926D02*
X125938769Y-76779926D01*
%TO.N,/CHIP_PU*%
X120962269Y-82339426D02*
X120830269Y-82471426D01*
X120962269Y-79012426D02*
X120962269Y-82339426D01*
X152288769Y-85555426D02*
X152522769Y-85789426D01*
X152288769Y-84503426D02*
X152288769Y-85555426D01*
X120830269Y-83778926D02*
X121554769Y-84503426D01*
X120830269Y-82471426D02*
X120830269Y-83778926D01*
%TO.N,GND*%
X122316769Y-86535426D02*
X118930269Y-83148926D01*
X118930269Y-83148926D02*
X118930269Y-82471426D01*
%TO.N,/RTS*%
X123198269Y-81288926D02*
X124198269Y-80288926D01*
X123198269Y-84876926D02*
X123198269Y-81288926D01*
X124856769Y-86535426D02*
X123198269Y-84876926D01*
%TO.N,+3.3V*%
X138064769Y-89583426D02*
X135016769Y-86535426D01*
X151122269Y-89987926D02*
X151018769Y-90091426D01*
X152542769Y-89987926D02*
X151122269Y-89987926D01*
%TO.N,/RXD*%
X148272769Y-90637955D02*
X148272769Y-85789426D01*
X147295298Y-91615426D02*
X148272769Y-90637955D01*
X146954769Y-91615426D02*
X147295298Y-91615426D01*
X129936769Y-90091426D02*
X130952769Y-91107426D01*
X129936769Y-86535426D02*
X129936769Y-90091426D01*
%TO.N,/TXD*%
X147422769Y-90559426D02*
X147462769Y-90599426D01*
X147422769Y-85789426D02*
X147422769Y-90559426D01*
X132476769Y-88567426D02*
X132984769Y-89075426D01*
X132476769Y-86535426D02*
X132476769Y-88567426D01*
%TO.N,+3.3V*%
X152542769Y-89987926D02*
X162194769Y-89987926D01*
%TO.N,/CHIP_PU*%
X152522769Y-88142926D02*
X152542769Y-88162926D01*
X152522769Y-85789426D02*
X152522769Y-88142926D01*
%TO.N,GND*%
X153572769Y-78789426D02*
X148222769Y-78789426D01*
X146572769Y-77139426D02*
X146572769Y-80439426D01*
X144922769Y-78789426D02*
X148222769Y-78789426D01*
X144922769Y-80439426D02*
X144922769Y-77139426D01*
X148222769Y-80439426D02*
X144922769Y-80439426D01*
X148222769Y-77139426D02*
X148222769Y-80439426D01*
X144922769Y-77139426D02*
X148222769Y-77139426D01*
%TO.N,/cam_rst*%
X144922769Y-88313426D02*
X144872769Y-88263426D01*
X144922769Y-88821426D02*
X144922769Y-88313426D01*
X162370455Y-74545426D02*
X159238769Y-77677112D01*
X144872769Y-88263426D02*
X144872769Y-85789426D01*
X163204769Y-74545426D02*
X162370455Y-74545426D01*
X159238769Y-77677112D02*
X159238769Y-88983426D01*
X159238769Y-88983426D02*
X159146769Y-89075426D01*
%TO.N,/csi_vsync*%
X145722769Y-87335426D02*
X145722769Y-85789426D01*
X145938769Y-87551426D02*
X145722769Y-87335426D01*
X145938769Y-88151426D02*
X145938769Y-87551426D01*
X162304769Y-74045426D02*
X158638769Y-77711426D01*
X163204769Y-74045426D02*
X162304769Y-74045426D01*
X158638769Y-77711426D02*
X158638769Y-88313426D01*
%TO.N,/pwdn*%
X139372769Y-83889426D02*
X139572769Y-83889426D01*
X137302769Y-85959426D02*
X139372769Y-83889426D01*
X137302769Y-86789426D02*
X137302769Y-85959426D01*
X159182769Y-73545426D02*
X157368769Y-75359426D01*
X163204769Y-73545426D02*
X159182769Y-73545426D01*
X157368769Y-75359426D02*
X157368769Y-87551426D01*
%TO.N,/csi_hsync*%
X143906769Y-74597426D02*
X143906769Y-75105426D01*
X158666769Y-73045426D02*
X157368769Y-74343426D01*
X143906769Y-75105426D02*
X144022769Y-75221426D01*
X144022769Y-75221426D02*
X144022769Y-85789426D01*
X163204769Y-73045426D02*
X158666769Y-73045426D01*
%TO.N,/csi_d7*%
X143172769Y-74061426D02*
X143172769Y-85789426D01*
X143652769Y-73581426D02*
X143172769Y-74061426D01*
X164730769Y-71545426D02*
X164734769Y-71549426D01*
X163204769Y-71545426D02*
X164730769Y-71545426D01*
%TO.N,/csi_mclk*%
X139372769Y-80489426D02*
X139572769Y-80489426D01*
X133746769Y-74863426D02*
X139372769Y-80489426D01*
X161377298Y-71295426D02*
X159654769Y-71295426D01*
X161627298Y-71045426D02*
X161377298Y-71295426D01*
X133746769Y-71803426D02*
X133746769Y-74863426D01*
X163204769Y-71045426D02*
X161627298Y-71045426D01*
%TO.N,/csi_d6*%
X139372769Y-77939426D02*
X139572769Y-77939426D01*
X134508769Y-70787426D02*
X134508769Y-73075426D01*
X161278769Y-70545426D02*
X161178769Y-70645426D01*
X163204769Y-70545426D02*
X161278769Y-70545426D01*
X134508769Y-73075426D02*
X139372769Y-77939426D01*
%TO.N,GND*%
X159452985Y-70209426D02*
X153756769Y-70209426D01*
X159616985Y-70045426D02*
X159452985Y-70209426D01*
X163204769Y-70045426D02*
X159616985Y-70045426D01*
X153756769Y-70209426D02*
X153572769Y-70025426D01*
X153572769Y-70025426D02*
X153572769Y-69772426D01*
X153572769Y-71789426D02*
X153572769Y-70025426D01*
%TO.N,/csi_d5*%
X139372769Y-77089426D02*
X139572769Y-77089426D01*
X135524769Y-73241426D02*
X139372769Y-77089426D01*
X135524769Y-69771426D02*
X135524769Y-73241426D01*
X159268456Y-69545426D02*
X159204456Y-69609426D01*
X163204769Y-69545426D02*
X159268456Y-69545426D01*
%TO.N,/csi_d4*%
X147422769Y-69303426D02*
X147422769Y-71789426D01*
X147716769Y-69009426D02*
X147422769Y-69303426D01*
X161059297Y-68545426D02*
X160595297Y-69009426D01*
X160595297Y-69009426D02*
X158638769Y-69009426D01*
X163204769Y-68545426D02*
X161059297Y-68545426D01*
%TO.N,/csi_d0*%
X139222769Y-74539426D02*
X139572769Y-74539426D01*
X136286769Y-71603426D02*
X139222769Y-74539426D01*
X136286769Y-68501426D02*
X136286769Y-71603426D01*
X160861611Y-68177426D02*
X159400769Y-68177426D01*
X160993611Y-68045426D02*
X160861611Y-68177426D01*
X163204769Y-68045426D02*
X160993611Y-68045426D01*
%TO.N,/csi_d3*%
X137048769Y-71549426D02*
X139188769Y-73689426D01*
X137048769Y-67739426D02*
X137048769Y-71549426D01*
X139188769Y-73689426D02*
X139572769Y-73689426D01*
X163172769Y-67577426D02*
X160613082Y-67577426D01*
X163204769Y-67545426D02*
X163172769Y-67577426D01*
%TO.N,/csi_d1*%
X139372769Y-72839426D02*
X139572769Y-72839426D01*
X138064769Y-71531426D02*
X139372769Y-72839426D01*
X138064769Y-66977426D02*
X138064769Y-71531426D01*
X161246769Y-67045426D02*
X161178769Y-66977426D01*
X163204769Y-67045426D02*
X161246769Y-67045426D01*
%TO.N,/csi_d2*%
X140622769Y-66741426D02*
X140622769Y-71789426D01*
X139842769Y-65961426D02*
X140622769Y-66741426D01*
X162016769Y-66545426D02*
X161432769Y-65961426D01*
X163204769Y-66545426D02*
X162016769Y-66545426D01*
%TO.N,+3.3V*%
X150764769Y-71847426D02*
X150822769Y-71789426D01*
X150764769Y-73073426D02*
X150764769Y-71847426D01*
X161190769Y-72045426D02*
X161178769Y-72057426D01*
X163204769Y-72045426D02*
X161190769Y-72045426D01*
%TO.N,GND*%
X167254769Y-70045426D02*
X167274769Y-70025426D01*
X163204769Y-70045426D02*
X167254769Y-70045426D01*
X167274769Y-70025426D02*
X167274769Y-64465426D01*
X167274769Y-73575955D02*
X167274769Y-70025426D01*
X167274769Y-64465426D02*
X166454769Y-63645426D01*
X168180926Y-74482112D02*
X167274769Y-73575955D01*
X168180926Y-77419269D02*
X168180926Y-74482112D01*
X166454769Y-78945426D02*
X166654769Y-78945426D01*
X166654769Y-78945426D02*
X168180926Y-77419269D01*
%TO.N,/csi_pclk*%
X172113769Y-68501426D02*
X173116769Y-69504426D01*
X171846769Y-68501426D02*
X172113769Y-68501426D01*
X164209365Y-69045426D02*
X164236853Y-69017938D01*
X163204769Y-69045426D02*
X164209365Y-69045426D01*
%TO.N,GND*%
X166454769Y-79735426D02*
X166454769Y-78945426D01*
X165750769Y-80439426D02*
X166454769Y-79735426D01*
X165750769Y-80947426D02*
X165750769Y-80439426D01*
X164226769Y-76733112D02*
X164226769Y-78661426D01*
X164039083Y-76545426D02*
X164226769Y-76733112D01*
X163204769Y-76545426D02*
X164039083Y-76545426D01*
%TO.N,+3.3V*%
X166629269Y-89987926D02*
X172100769Y-84516426D01*
X165750769Y-89987926D02*
X166629269Y-89987926D01*
%TO.N,/twi_sck*%
X165756240Y-74759426D02*
X165470240Y-75045426D01*
X165470240Y-75045426D02*
X163204769Y-75045426D01*
X166253298Y-74759426D02*
X165756240Y-74759426D01*
X167020769Y-75526897D02*
X166253298Y-74759426D01*
X167020769Y-75613426D02*
X167020769Y-75526897D01*
X165750769Y-86535426D02*
X166766769Y-85519426D01*
X165750769Y-88162926D02*
X165750769Y-86535426D01*
%TO.N,/twi_sda*%
X164104769Y-76045426D02*
X163204769Y-76045426D01*
X164988769Y-76929426D02*
X164104769Y-76045426D01*
X164988769Y-81709426D02*
X164988769Y-76929426D01*
X162194769Y-88162926D02*
X162194769Y-84503426D01*
%TO.N,/pwdn*%
X163232257Y-73572914D02*
X163204769Y-73545426D01*
X164236853Y-73572914D02*
X163232257Y-73572914D01*
X168798769Y-74251426D02*
X168036769Y-73489426D01*
X168798769Y-82725426D02*
X168798769Y-74251426D01*
%TO.N,GND*%
X166454769Y-78945426D02*
X166454769Y-82206426D01*
X166454769Y-82206426D02*
X168798769Y-84550426D01*
X173655034Y-81412161D02*
X172100769Y-82966426D01*
X175032269Y-76004926D02*
X176164769Y-77137426D01*
X174089504Y-81412161D02*
X173655034Y-81412161D01*
X175032269Y-75625426D02*
X175032269Y-76004926D01*
X170516769Y-84550426D02*
X172100769Y-82966426D01*
X168798769Y-84550426D02*
X170516769Y-84550426D01*
%TO.N,+3.3V*%
X172100769Y-84249426D02*
X179974769Y-76375426D01*
X172100769Y-84516426D02*
X172100769Y-84249426D01*
%TO.N,+1V2*%
X174257269Y-78910426D02*
X176114769Y-78910426D01*
X173482269Y-78135426D02*
X174257269Y-78910426D01*
X176114769Y-78910426D02*
X177699769Y-77325426D01*
%TO.N,GND*%
X175032269Y-78135426D02*
X175032269Y-75625426D01*
X175032269Y-75625426D02*
X177499769Y-75625426D01*
X177499769Y-75625426D02*
X177699769Y-75425426D01*
%TO.N,+1V2*%
X173482269Y-72930926D02*
X173482269Y-75625426D01*
X173116769Y-72565426D02*
X173482269Y-72930926D01*
X165984769Y-72545426D02*
X166004769Y-72565426D01*
X163204769Y-72545426D02*
X165984769Y-72545426D01*
X173482269Y-75625426D02*
X173482269Y-78135426D01*
%TO.N,+2V8*%
X165818769Y-75545426D02*
X163204769Y-75545426D01*
X166004769Y-75359426D02*
X165818769Y-75545426D01*
X176510769Y-73743426D02*
X176164769Y-74089426D01*
X176510769Y-69101426D02*
X176510769Y-73743426D01*
X174494769Y-67085426D02*
X176510769Y-69101426D01*
X174003269Y-67085426D02*
X174494769Y-67085426D01*
%TO.N,GND*%
X174003269Y-63025426D02*
X174778269Y-63800426D01*
X167074769Y-63025426D02*
X174003269Y-63025426D01*
X166454769Y-63645426D02*
X167074769Y-63025426D01*
X176164769Y-65707426D02*
X174778269Y-64320926D01*
X174778269Y-64320926D02*
X174778269Y-63800426D01*
X174373769Y-71054426D02*
X175910769Y-69517426D01*
X173116769Y-71054426D02*
X174373769Y-71054426D01*
%TO.N,+2V8*%
X173228269Y-66310426D02*
X173228269Y-63800426D01*
%TO.N,GND*%
X174778269Y-66310426D02*
X174778269Y-63800426D01*
%TO.N,+2V8*%
X176255769Y-67085426D02*
X177445769Y-65895426D01*
X174003269Y-67085426D02*
X176255769Y-67085426D01*
X173228269Y-66310426D02*
X174003269Y-67085426D01*
%TO.N,GND*%
X174973269Y-63995426D02*
X174778269Y-63800426D01*
X177445769Y-63995426D02*
X174973269Y-63995426D01*
%TO.N,+3.3V*%
X179720769Y-76121426D02*
X179720769Y-64945426D01*
X179974769Y-76375426D02*
X179720769Y-76121426D01*
X162194769Y-89987926D02*
X165750769Y-89987926D01*
%TO.N,GND*%
X153572769Y-71789426D02*
X153572769Y-85789426D01*
X153572769Y-69772426D02*
X151526769Y-67726426D01*
X151672769Y-71789426D02*
X153572769Y-71789426D01*
%TO.N,+3.3V*%
X150822769Y-69980426D02*
X151526769Y-69276426D01*
X150822769Y-71789426D02*
X150822769Y-69980426D01*
D40*
%TO.N,/V_IN*%
X147462769Y-66215426D02*
X146166019Y-64918676D01*
X141901519Y-64918676D02*
X137828768Y-60845925D01*
X146166019Y-64918676D02*
X141901519Y-64918676D01*
X143398769Y-66415926D02*
X141901519Y-64918676D01*
D39*
%TO.N,GND*%
X147462769Y-67765426D02*
X151487769Y-67765426D01*
X151487769Y-67765426D02*
X151526769Y-67726426D01*
%TO.N,/steer_b*%
X145398769Y-71063426D02*
X145398769Y-67403426D01*
X144872769Y-71589426D02*
X145398769Y-71063426D01*
X144872769Y-71789426D02*
X144872769Y-71589426D01*
%TO.N,/steer_a*%
X144398769Y-70813426D02*
X144398769Y-67403426D01*
X144022769Y-71189426D02*
X144398769Y-70813426D01*
X144022769Y-71789426D02*
X144022769Y-71189426D01*
%TO.N,/motor_b*%
X142322769Y-67479426D02*
X142398769Y-67403426D01*
X142322769Y-71789426D02*
X142322769Y-67479426D01*
%TO.N,/motor_a*%
X141398769Y-71715426D02*
X141472769Y-71789426D01*
X141398769Y-67403426D02*
X141398769Y-71715426D01*
D40*
%TO.N,/V_IN*%
X137828768Y-60845925D02*
X137828768Y-57574427D01*
X143398769Y-67403426D02*
X143398769Y-66415926D01*
D39*
%TO.N,GND*%
X146967794Y-55814451D02*
X150028819Y-52753426D01*
X143398769Y-59383476D02*
X146967794Y-55814451D01*
X136540769Y-56055426D02*
X136286769Y-55801426D01*
X137797769Y-56055426D02*
X136540769Y-56055426D01*
X136843769Y-52245426D02*
X137097769Y-52499426D01*
X135778769Y-52245426D02*
X136843769Y-52245426D01*
X126879769Y-52254426D02*
X127142769Y-51991426D01*
X126879769Y-54268426D02*
X126879769Y-52254426D01*
X127904769Y-55293426D02*
X126879769Y-54268426D01*
X127904769Y-55481426D02*
X127904769Y-55293426D01*
X127904769Y-58595426D02*
X127904769Y-55481426D01*
X134000769Y-59103426D02*
X133746769Y-58849426D01*
X134000769Y-60124427D02*
X134000769Y-59103426D01*
%TO.N,+3.3V*%
X128907769Y-56154426D02*
X131038769Y-54023426D01*
X128907769Y-60764926D02*
X128907769Y-56154426D01*
X131056269Y-62913426D02*
X128907769Y-60764926D01*
%TO.N,GND*%
X135525766Y-59424427D02*
X136691269Y-60589930D01*
X134375768Y-59424427D02*
X135525766Y-59424427D01*
X136691269Y-60589930D02*
X136691269Y-62913426D01*
X134000769Y-59799426D02*
X134375768Y-59424427D01*
X134000769Y-60124427D02*
X134000769Y-59799426D01*
%TO.N,Net-(U2-FB)*%
X134950767Y-62828928D02*
X134866269Y-62913426D01*
X134950767Y-60124427D02*
X134950767Y-62828928D01*
X132881269Y-62913426D02*
X134866269Y-62913426D01*
%TO.N,Net-(U2-CB)*%
X132550767Y-59624426D02*
X133050768Y-60124427D01*
X129682769Y-59624426D02*
X132550767Y-59624426D01*
%TO.N,Net-(U2-SW)*%
X132550769Y-58074426D02*
X133050768Y-57574427D01*
X129682769Y-58074426D02*
X132550769Y-58074426D01*
%TO.N,+3.3V*%
X128346769Y-54023426D02*
X127904769Y-53581426D01*
X131038769Y-54023426D02*
X128346769Y-54023426D01*
%TO.N,Net-(U2-SW)*%
X133050768Y-57574427D02*
X133050768Y-54211427D01*
X133050768Y-54211427D02*
X133238769Y-54023426D01*
D40*
%TO.N,/V_IN*%
X137828768Y-57574427D02*
X139347769Y-56055426D01*
X134950767Y-57574427D02*
X137828768Y-57574427D01*
X134000769Y-57574427D02*
X134950767Y-57574427D01*
D39*
%TO.N,GND*%
X137797769Y-53199426D02*
X137097769Y-52499426D01*
X137797769Y-56055426D02*
X137797769Y-53199426D01*
D40*
%TO.N,/V_IN*%
X139347769Y-53199426D02*
X140047769Y-52499426D01*
X139347769Y-56055426D02*
X139347769Y-53199426D01*
X140301769Y-52753426D02*
X140047769Y-52499426D01*
X145430769Y-52753426D02*
X140301769Y-52753426D01*
%TO.N,Net-(IC1-OUT1)*%
X141398769Y-60151426D02*
X141366769Y-60119426D01*
X141398769Y-61979426D02*
X141398769Y-60151426D01*
%TO.N,Net-(IC1-OUT2)*%
X142398769Y-57595426D02*
X142128769Y-57325426D01*
X142398769Y-61979426D02*
X142398769Y-57595426D01*
D39*
%TO.N,GND*%
X150028819Y-52753426D02*
X155336769Y-52753426D01*
X143398769Y-61979426D02*
X143398769Y-59383476D01*
D40*
%TO.N,Net-(IC1-OUT4)*%
X147208769Y-60169426D02*
X147208769Y-57325426D01*
X145398769Y-61979426D02*
X147208769Y-60169426D01*
%TO.N,Net-(IC1-OUT3)*%
X144398769Y-59373426D02*
X145176769Y-58595426D01*
X144398769Y-61979426D02*
X144398769Y-59373426D01*
%TD*%
M02*
