M48
; DRILL file {KiCad 8.0.4} date 2024-09-11T06:46:49-0500
; FORMAT={-:-/ absolute / inch / decimal}
; #@! TF.CreationDate,2024-09-11T06:46:49-05:00
; #@! TF.GenerationSoftware,Kicad,Pcbnew,8.0.4
; #@! TF.FileFunction,Plated,1,2,PTH
FMAT,2
INCH
; #@! TA.AperFunction,Plated,PTH,ViaDrill
T1C0.0118
; #@! TA.AperFunction,Plated,PTH,ViaDrill
T2C0.0236
; #@! TA.AperFunction,Plated,PTH,ComponentDrill
T3C0.0394
; #@! TA.AperFunction,Plated,PTH,ComponentDrill
T4C0.0866
%
G90
G05
T1
X4.7856Y-3.3269
X4.8956Y-3.2769
X5.0056Y-2.0469
X5.0056Y-3.1669
X5.0356Y-2.3069
X5.0756Y-3.2769
X5.1356Y-3.2969
X5.1556Y-3.2569
X5.1556Y-3.5869
X5.1956Y-2.8569
X5.2356Y-3.5069
X5.2656Y-2.3169
X5.2656Y-2.8269
X5.2956Y-2.7869
X5.3356Y-2.7469
X5.3456Y-2.0569
X5.3656Y-2.1969
X5.3656Y-2.6969
X5.3756Y-3.1769
X5.3956Y-2.6669
X5.4056Y-3.4169
X5.4356Y-2.6369
X5.4356Y-3.5269
X5.4856Y-3.4769
X5.5056Y-2.5969
X5.5456Y-3.2969
X5.5556Y-3.2333
X5.5756Y-3.2769
X5.6556Y-2.8969
X5.6656Y-2.9369
X5.7056Y-3.4969
X5.7456Y-3.4705
X5.7756Y-3.3033
X5.7856Y-3.6069
X5.7861Y-2.1974
X5.8056Y-3.5669
X5.8156Y-2.7169
X5.8856Y-3.1669
X5.8956Y-3.0669
X5.9356Y-2.8769
X5.9456Y-2.1969
X5.9456Y-3.5469
X5.9956Y-3.3269
X6.1956Y-2.9269
X6.1956Y-3.4469
X6.2456Y-2.7169
X6.2456Y-3.4769
X6.2656Y-3.5069
X6.2679Y-2.7405
X6.2756Y-2.6842
X6.2856Y-2.8069
X6.3233Y-2.6605
X6.3456Y-2.6369
X6.3456Y-2.7813
X6.3456Y-2.8369
X6.3556Y-2.5969
X6.4556Y-3.2569
X6.4656Y-3.0969
X6.466Y-2.7172
X6.466Y-2.8966
X6.4856Y-2.8169
X6.5256Y-3.1869
X6.5356Y-2.8569
X6.5356Y-2.9669
X6.5656Y-3.3669
X6.5756Y-2.9769
X6.6156Y-2.8933
X6.7656Y-2.6969
X6.8156Y-2.8569
X6.8539Y-3.2052
X6.9256Y-2.7369
X6.9356Y-2.5869
X6.9356Y-2.9169
X6.9356Y-3.0369
T2
X5.5656Y-2.3669
X5.5956Y-2.2569
X5.7156Y-2.3069
X5.7956Y-2.2569
T3
X4.8156Y-3.4069
X4.9156Y-3.4069
X5.0156Y-3.4069
X5.1156Y-3.4069
X5.2156Y-3.4069
X5.3156Y-3.4069
T4
X4.8106Y-2.1781
X4.8106Y-2.3769
X5.7256Y-2.0769
X6.1156Y-2.0769
X7.0756Y-2.1181
X7.0756Y-2.3169
M30
